# xmcd
#
# Track frame offsets: 
#        150
#        21612
#        39097
#        55177
#        71562
#        85577
#        101855
#        119022
#        139565
#        153292
#
# Disc length: 2232 seconds
#
# Revision: 2
# Processed by: cddbd v1.4PL0 Copyright (c) Steve Scherf et al.
# Submitted via: ExactAudioCopy v0.90a11
#
DISCID=8108b60a
DTITLE=Lee Greenwood - If Only For One Night
DYEAR=1900
DGENRE=
TTITLE0=If Only For One Night
TTITLE1=I Go Crazy
TTITLE2=Opinion On Love
TTITLE3=I Love The Way He Left You
TTITLE4=We Fell In Love Anyway
TTITLE5=Any Way The Law Allows
TTITLE6=Omin' Apart At The Dreams
TTITLE7=My Heart Is In The Line
TTITLE8='Til Then
TTITLE9=Home To Alaska
EXTD=
EXTT0=
EXTT1=
EXTT2=
EXTT3=
EXTT4=
EXTT5=
EXTT6=
EXTT7=
EXTT8=
EXTT9=
PLAYORDER=
